# xmcd
#
# Track frame offsets:
# 150
# 12695
# 27175
# 39293
# 52319
# 62905
# 76353
# 88651
# 100445
# 114870
# 128237
# 142543
#
# Disc length: 2080 seconds
#
#
# Revision: 0
# Processed by: cddbd v1.5.2PL0 Copyright (c) Steve Scherf et al.
# Submitted via: FreeRIP 2.951 
#
DISCID=9b081e0c
DTITLE=Radio Formula - Los mejores trios
DYEAR=1900
DGENRE=bolero
TTITLE0=Los panchos - Sin ti
TTITLE1=Los tres diamantes - Usted
TTITLE2=Los dandys - Gema
TTITLE3=Los Panchos - Rayito de luna
TTITLE4=Los montejo - Beso asesino
TTITLE5=Los tres reyes - Sombras
TTITLE6=Los Galantes - Novia mia Novia mia
TTITLE7=Los soberanos - Una noche mas
TTITLE8=Los fantasmas - Pagina Blanca
TTITLE9=Los panchos - Contigo
TTITLE10=Los tres ases - Delirio
TTITLE11=Los tecolines - Cerezo rosa
EXTD=
EXTT0=
EXTT1=
EXTT2=
EXTT3=
EXTT4=
EXTT5=
EXTT6=
EXTT7=
EXTT8=
EXTT9=
EXTT10=
EXTT11=
PLAYORDER=
